<svg id="best-seller" xmlns="http://www.w3.org/2000/svg" xmlns:xlink="http://www.w3.org/1999/xlink" width="37.384" height="46.522" viewBox="0 0 37.384 46.522">
  <defs>
    <linearGradient id="linear-gradient" x1="0.5" y1="1" x2="0.5" gradientUnits="objectBoundingBox">
      <stop offset="0" stop-color="#00225d"/>
      <stop offset="1" stop-color="#087adb"/>
    </linearGradient>
    <linearGradient id="linear-gradient-2" x1="0.5" y1="1" x2="0.5" gradientUnits="objectBoundingBox">
      <stop offset="0" stop-color="#ffe59a"/>
      <stop offset="1" stop-color="#ffffd5"/>
    </linearGradient>
  </defs>
  <path id="Path_7155" data-name="Path 7155" d="M86.639,19.591a1.106,1.106,0,0,1,0-1.036l.573-1.082A3.857,3.857,0,0,0,86.1,12.595l-.985-.726a1.106,1.106,0,0,1-.449-.933l.047-1.223A3.857,3.857,0,0,0,81.59,5.8l-1.2-.227a1.105,1.105,0,0,1-.809-.646l-.489-1.122A3.857,3.857,0,0,0,74.58,1.634L73.4,1.952a1.106,1.106,0,0,1-1.009-.23l-.927-.8a3.857,3.857,0,0,0-5,0l-.927.8a1.106,1.106,0,0,1-1.009.23l-1.182-.318A3.857,3.857,0,0,0,58.83,3.805l-.489,1.122a1.106,1.106,0,0,1-.809.646l-1.2.227a3.857,3.857,0,0,0-3.12,3.913l.047,1.223a1.105,1.105,0,0,1-.449.933l-.985.726a3.857,3.857,0,0,0-1.114,4.879l.573,1.082a1.106,1.106,0,0,1,0,1.035l-.573,1.082a3.857,3.857,0,0,0,1.114,4.879l.985.726a1.105,1.105,0,0,1,.449.933l-.047,1.223a3.857,3.857,0,0,0,3.12,3.913l.631.119.093,2.913L63.779,38.8,66.7,37.413a3.862,3.862,0,0,0,4.5.023l2.4,1.634,6.726-3.431.6-3.165.67-.126a3.857,3.857,0,0,0,3.12-3.913l-.047-1.223a1.106,1.106,0,0,1,.449-.933l.985-.726a3.857,3.857,0,0,0,1.114-4.879Z" transform="translate(-50.267 0)" fill="url(#linear-gradient)"/>
  <g id="Group_3454" data-name="Group 3454" transform="translate(2.176 6.802)">
    <g id="Group_3453" data-name="Group 3453">
      <path id="Path_7156" data-name="Path 7156" d="M103,87.113a12.27,12.27,0,1,0-12.27,12.27A12.284,12.284,0,0,0,103,87.113ZM96.865,86.4l-2.08,2.027.491,2.863A1.363,1.363,0,0,1,93.3,92.732L90.726,91.38l-2.571,1.352a1.363,1.363,0,0,1-1.978-1.437l.491-2.863L84.588,86.4a1.363,1.363,0,0,1,.756-2.325l2.875-.418,1.285-2.6a1.363,1.363,0,0,1,2.445,0l1.286,2.6,2.874.418a1.364,1.364,0,0,1,.756,2.326ZM87.3,104.465a1.106,1.106,0,0,0-1.009-.23l-1.182.317a3.857,3.857,0,0,1-4.509-2.171l-.489-1.122a1.106,1.106,0,0,0-.81-.646l-.572-.108-4.345,7.852a1.363,1.363,0,0,0,1.281,2.021l3.991-.257,1.779,3.672a1.364,1.364,0,0,0,1.192.769h.035a1.363,1.363,0,0,0,1.2-.708l4.609-8.4c-.081-.059-.161-.122-.239-.189Zm19.731,3.893-4.341-7.845-.533.1a1.105,1.105,0,0,0-.809.646l-.489,1.122a3.863,3.863,0,0,1-3.529,2.3,3.774,3.774,0,0,1-.98-.129l-1.182-.317a1.106,1.106,0,0,0-1.009.23l-.927.8q-.131.113-.269.211l4.6,8.379a1.363,1.363,0,0,0,1.2.708h.035a1.363,1.363,0,0,0,1.192-.768l1.779-3.672,3.99.257a1.363,1.363,0,0,0,1.281-2.021Z" transform="translate(-74.211 -74.843)" fill="url(#linear-gradient-2)"/>
    </g>
  </g>
</svg>
