<svg id="XMLID_22_" xmlns="http://www.w3.org/2000/svg" width="39.615" height="39.619" viewBox="0 0 39.615 39.619">
  <path id="XMLID_143_" d="M37.489,29.211v.846c0,4.735-7.951,8.572-17.758,8.572-5.414,0-10.258-1.171-13.515-3.015,1.1,4.265,8.562,7.8,17.614,7.8,9.807,0,17.758-4.145,17.758-8.879,0-2.082-1.541-3.916-4.1-5.32" transform="translate(-1.972 -9.26)" fill="#fcc62d"/>
  <path id="XMLID_142_" d="M23.761,45.879C13.954,45.879,6,41.735,6,37v5.77c0,4.735,7.951,8.573,17.758,8.573S41.52,47.5,41.52,42.77V37c0,4.735-7.951,8.879-17.758,8.879" transform="translate(-1.905 -11.729)" fill="#e4af18"/>
  <path id="XMLID_141_" d="M9,48.7a11.1,11.1,0,0,0,1.366,1.055V44.095A11.349,11.349,0,0,1,9,43Z" transform="translate(-2.856 -13.63)" fill="#ce9912"/>
  <path id="XMLID_140_" d="M53,44.095v5.663A11.034,11.034,0,0,0,54.369,48.7V43A11.24,11.24,0,0,1,53,44.095" transform="translate(-16.803 -13.631)" fill="#ce9912"/>
  <path id="XMLID_139_" d="M13,51.448q.647.335,1.366.635v-5.6q-.717-.316-1.366-.666Z" transform="translate(-4.124 -14.525)" fill="#ce9912"/>
  <path id="XMLID_138_" d="M49,52.082q.717-.3,1.366-.635V45.82q-.647.35-1.366.666Z" transform="translate(-15.535 -14.524)" fill="#ce9912"/>
  <path id="XMLID_137_" d="M17,53.161q.662.226,1.366.423V48.042q-.7-.209-1.366-.448Z" transform="translate(-5.392 -15.087)" fill="#ce9912"/>
  <path id="XMLID_136_" d="M45,53.584q.7-.2,1.366-.423V47.594q-.662.239-1.366.448Z" transform="translate(-14.267 -15.087)" fill="#ce9912"/>
  <path id="XMLID_135_" d="M22,54.527c.446.09.9.171,1.366.242V49.275c-.464-.077-.92-.163-1.366-.259Z" transform="translate(-6.977 -15.538)" fill="#ce9912"/>
  <path id="XMLID_134_" d="M40,54.769c.464-.072.92-.153,1.366-.242V49.015c-.446.1-.9.182-1.366.26Z" transform="translate(-12.683 -15.537)" fill="#ce9912"/>
  <path id="XMLID_133_" d="M28,55.36c.449.033.906.057,1.366.073V49.967c-.46-.018-.917-.042-1.366-.079Z" transform="translate(-8.879 -15.814)" fill="#ce9912"/>
  <path id="XMLID_132_" d="M34,55.433c.46-.017.917-.04,1.366-.073V49.888c-.449.036-.906.061-1.366.079Z" transform="translate(-10.781 -15.814)" fill="#ce9912"/>
  <path id="XMLID_131_" d="M17.761,30.872C7.954,30.872,0,26.728,0,21.993v5.77c0,4.735,7.951,8.573,17.758,8.573S35.52,32.5,35.52,27.763v-5.77c0,4.735-7.951,8.879-17.758,8.879" transform="translate(-0.003 -6.972)" fill="#e4af18"/>
  <path id="XMLID_130_" d="M3,33.7a11.1,11.1,0,0,0,1.366,1.055V29.088A11.414,11.414,0,0,1,3,27.994Z" transform="translate(-0.954 -8.874)" fill="#ce9912"/>
  <path id="XMLID_129_" d="M47,29.088v5.663A11.034,11.034,0,0,0,48.369,33.7v-5.7A11.242,11.242,0,0,1,47,29.088" transform="translate(-14.901 -8.873)" fill="#ce9912"/>
  <path id="XMLID_128_" d="M7,36.441q.647.335,1.366.635v-5.6Q7.652,31.164,7,30.814v5.627Z" transform="translate(-2.222 -9.768)" fill="#ce9912"/>
  <path id="XMLID_127_" d="M43,37.075q.717-.3,1.366-.635V30.813q-.648.35-1.366.666Z" transform="translate(-13.633 -9.767)" fill="#ce9912"/>
  <path id="XMLID_126_" d="M11,38.154q.662.226,1.366.423V33.035q-.7-.209-1.366-.448Z" transform="translate(-3.49 -10.33)" fill="#ce9912"/>
  <path id="XMLID_125_" d="M39,38.577q.7-.2,1.366-.423V32.587q-.662.239-1.366.448Z" transform="translate(-12.366 -10.33)" fill="#ce9912"/>
  <path id="XMLID_124_" d="M16,39.52c.446.09.9.171,1.366.242V34.268c-.464-.077-.92-.163-1.366-.259Z" transform="translate(-5.075 -10.78)" fill="#ce9912"/>
  <path id="XMLID_123_" d="M34,39.763c.464-.072.92-.153,1.366-.242V34.009c-.446.1-.9.182-1.366.26Z" transform="translate(-10.781 -10.78)" fill="#ce9912"/>
  <path id="XMLID_122_" d="M22,40.354c.449.033.906.057,1.366.073V34.961c-.46-.018-.917-.042-1.366-.079Z" transform="translate(-6.977 -11.057)" fill="#ce9912"/>
  <path id="XMLID_121_" d="M28,40.426c.46-.017.917-.04,1.366-.073V34.881c-.449.036-.906.061-1.366.079Z" transform="translate(-8.879 -11.057)" fill="#ce9912"/>
  <path id="XMLID_120_" d="M39.276,33.3C37.448,37.1,30.4,39.926,21.985,39.926a33.522,33.522,0,0,1-8.659-1.088c2.478,1.682,6.888,3.114,12.757,3.114,9.345,0,15.026-3.627,15.026-6.124,0-.833-.641-1.717-1.833-2.526" transform="translate(-4.226 -10.556)" fill="#ffd949"/>
  <path id="XMLID_119_" d="M21.176,27.23c-9.807,0-17.758-3.839-17.758-8.573V14.8C1.273,16.141,0,17.827,0,19.716,0,24.451,7.954,28.6,17.761,28.6a28.818,28.818,0,0,0,12.191-2.488,33.4,33.4,0,0,1-8.776,1.122" transform="translate(-0.003 -4.69)" fill="#ffd949"/>
  <path id="XMLID_118_" d="M22.761,20.872C12.954,20.872,5,16.728,5,11.993v5.77c0,4.735,7.951,8.573,17.758,8.573S40.52,22.5,40.52,17.763v-5.77c0,4.735-7.951,8.879-17.758,8.879" transform="translate(-1.588 -3.802)" fill="#e4af18"/>
  <path id="XMLID_117_" d="M8,23.7a11.1,11.1,0,0,0,1.366,1.055V19.088A11.414,11.414,0,0,1,8,17.994Z" transform="translate(-2.539 -5.704)" fill="#ce9912"/>
  <path id="XMLID_116_" d="M52,19.088v5.663A11.033,11.033,0,0,0,53.369,23.7v-5.7A11.242,11.242,0,0,1,52,19.088" transform="translate(-16.486 -5.704)" fill="#ce9912"/>
  <path id="XMLID_115_" d="M12,26.441q.647.335,1.366.635v-5.6q-.717-.316-1.366-.666Z" transform="translate(-3.807 -6.598)" fill="#ce9912"/>
  <path id="XMLID_114_" d="M48,27.075q.717-.3,1.366-.635V20.813q-.648.35-1.366.666Z" transform="translate(-15.218 -6.597)" fill="#ce9912"/>
  <path id="XMLID_113_" d="M16,28.154q.662.226,1.366.423V23.035q-.7-.209-1.366-.448Z" transform="translate(-5.075 -7.16)" fill="#ce9912"/>
  <path id="XMLID_112_" d="M44,28.577q.7-.2,1.366-.423V22.587q-.662.239-1.366.448Z" transform="translate(-13.95 -7.16)" fill="#ce9912"/>
  <path id="XMLID_111_" d="M21,29.52c.446.09.9.171,1.366.242V24.268c-.464-.077-.92-.163-1.366-.259Z" transform="translate(-6.66 -7.611)" fill="#ce9912"/>
  <path id="XMLID_110_" d="M39,29.763c.464-.072.92-.153,1.366-.242V24.009c-.446.1-.9.182-1.366.26Z" transform="translate(-12.366 -7.611)" fill="#ce9912"/>
  <path id="XMLID_109_" d="M27,30.354c.449.033.906.057,1.366.073V24.961c-.46-.018-.917-.042-1.366-.079Z" transform="translate(-8.562 -7.887)" fill="#ce9912"/>
  <path id="XMLID_108_" d="M33,30.426c.46-.017.917-.04,1.366-.073V24.881c-.449.036-.906.061-1.366.079Z" transform="translate(-10.464 -7.887)" fill="#ce9912"/>
  <path id="XMLID_107_" d="M40.52,8.2c0,4.735-7.951,8.879-17.758,8.879S5,12.931,5,8.2,12.954,0,22.761,0,40.52,3.462,40.52,8.2" transform="translate(-1.588)" fill="#fcc62d"/>
  <path id="XMLID_106_" d="M24.029,15.271C14.684,15.271,9,11.644,9,9.147S14.684,3,24.029,3,39.056,6.651,39.056,9.147s-5.681,6.124-15.026,6.124" transform="translate(-2.856 -0.951)" fill="#ffd949"/>
  <path id="XMLID_105_" d="M32.782,11.343c.56-.119.889-.464.768-.859l-.13-.421a1.279,1.279,0,0,0-.917-.7c-.616-1.316-2.187-1.793-4.52-1.793-.111,0-.219,0-.325.007a5.96,5.96,0,0,1-2.21-.27,2.468,2.468,0,0,1-.594-.289c-.061-.045-.21-.016-.21.041a2.129,2.129,0,0,0,.029.349c.085.51-.016.434-.52.943a3.443,3.443,0,0,0-.694,1.015,1.279,1.279,0,0,0-.913.695l-.13.421c-.121.394.208.74.768.859a3.029,3.029,0,0,0,2.339,2.381l-.082.708a.6.6,0,0,1-.423.45L22,15.971a29.216,29.216,0,0,0,5.978.591,29.353,29.353,0,0,0,5.9-.575l-2.947-1.1a.594.594,0,0,1-.414-.447l-.083-.714a3.03,3.03,0,0,0,2.339-2.382" transform="translate(-6.977 -2.219)" fill="#f0c41b"/>
</svg>
