<svg xmlns="http://www.w3.org/2000/svg" width="22.573" height="14.826" viewBox="0 0 22.573 14.826">
  <g id="Group_32874" data-name="Group 32874" transform="translate(-151 -836)">
    <g id="console" transform="translate(151 780.891)">
      <g id="Group_421" data-name="Group 421" transform="translate(0 55.109)">
        <g id="Group_420" data-name="Group 420">
          <path id="Path_463" data-name="Path 463" d="M22.561,65.363a21.071,21.071,0,0,0-.619-4.077,15.647,15.647,0,0,0-1.265-3.43c-1.968-3.458-4.1-2.924-6.663-2.249a18.314,18.314,0,0,1-2.587.506h-.281a18.314,18.314,0,0,1-2.587-.506C6,54.96,3.864,54.4,1.9,57.884a14.333,14.333,0,0,0-1.265,3.43,21.071,21.071,0,0,0-.619,4.077A7.661,7.661,0,0,0,.406,68.6a2.131,2.131,0,0,0,1.35,1.265,2.749,2.749,0,0,0,1.8-.2,13.215,13.215,0,0,0,3.6-2.559,6.207,6.207,0,0,1,4.133-1.265,6.207,6.207,0,0,1,4.133,1.265,13.215,13.215,0,0,0,3.6,2.559,2.941,2.941,0,0,0,1.8.2,2.1,2.1,0,0,0,1.35-1.293A7.518,7.518,0,0,0,22.561,65.363Zm-1.35,2.812a1.115,1.115,0,0,1-.675.7,1.942,1.942,0,0,1-1.153-.141A11.467,11.467,0,0,1,16.123,66.4a7.021,7.021,0,0,0-4.836-1.6,7.414,7.414,0,0,0-4.864,1.546A11.682,11.682,0,0,1,3.161,68.68a1.744,1.744,0,0,1-1.153.141,1.115,1.115,0,0,1-.675-.7,6.648,6.648,0,0,1-.281-2.7,19.394,19.394,0,0,1,.59-3.88,13.416,13.416,0,0,1,1.181-3.177c1.546-2.783,3.346-2.334,5.483-1.771a16.493,16.493,0,0,0,2.755.534h.422a16.289,16.289,0,0,0,2.783-.534c2.137-.534,3.936-1.012,5.483,1.771a12.964,12.964,0,0,1,1.181,3.177,21.281,21.281,0,0,1,.59,3.88A6.506,6.506,0,0,1,21.212,68.174Z" transform="translate(0 -55.109)" fill="#9e9999"/>
        </g>
      </g>
      <g id="Group_423" data-name="Group 423" transform="translate(2.908 57.912)">
        <g id="Group_422" data-name="Group 422" transform="translate(0 0)">
          <path id="Path_464" data-name="Path 464" d="M47.165,96.949a1.708,1.708,0,0,0-1.012-.478,1.6,1.6,0,0,0-.45-.984l-.028-.028a1.592,1.592,0,0,0-1.153-.478,1.66,1.66,0,0,0-1.153.478,1.634,1.634,0,0,0-.478,1.012,1.675,1.675,0,0,0-1.012.45l-.028.028a1.592,1.592,0,0,0-.478,1.153,1.66,1.66,0,0,0,.478,1.153,1.567,1.567,0,0,0,1.04.478,1.5,1.5,0,0,0,.478,1.012,1.592,1.592,0,0,0,1.153.478,1.66,1.66,0,0,0,1.153-.478,1.708,1.708,0,0,0,.478-1.012,1.5,1.5,0,0,0,1.012-.478,1.592,1.592,0,0,0,.478-1.153A1.66,1.66,0,0,0,47.165,96.949Zm-.7,1.574a.572.572,0,0,1-.422.169h-.394a.534.534,0,0,0-.534.534v.366a.59.59,0,1,1-1.181,0V99.2a.534.534,0,0,0-.534-.534H43a.577.577,0,0,1-.422-.984l.028-.028A.672.672,0,0,1,43,97.511H43.4a.534.534,0,0,0,.534-.534v-.394a.6.6,0,0,1,1.012-.422l.028.028a.672.672,0,0,1,.141.394v.394a.534.534,0,0,0,.534.534h.394a.6.6,0,0,1,.422,1.012Z" transform="translate(-41.373 -94.981)" fill="#9e9999"/>
        </g>
      </g>
      <g id="Group_425" data-name="Group 425" transform="translate(15.195 58.053)">
        <g id="Group_424" data-name="Group 424" transform="translate(0 0)">
          <circle id="Ellipse_19" data-name="Ellipse 19" cx="0.984" cy="0.984" r="0.984" fill="#9e9999"/>
        </g>
      </g>
      <g id="Group_427" data-name="Group 427" transform="translate(15.195 62.045)">
        <g id="Group_426" data-name="Group 426" transform="translate(0 0)">
          <circle id="Ellipse_20" data-name="Ellipse 20" cx="0.984" cy="0.984" r="0.984" fill="#9e9999"/>
        </g>
      </g>
      <g id="Group_429" data-name="Group 429" transform="translate(13.199 60.049)">
        <g id="Group_428" data-name="Group 428" transform="translate(0 0)">
          <circle id="Ellipse_21" data-name="Ellipse 21" cx="0.984" cy="0.984" r="0.984" fill="#9e9999"/>
        </g>
      </g>
      <g id="Group_431" data-name="Group 431" transform="translate(17.191 60.049)">
        <g id="Group_430" data-name="Group 430" transform="translate(0 0)">
          <circle id="Ellipse_22" data-name="Ellipse 22" cx="0.984" cy="0.984" r="0.984" fill="#9e9999"/>
        </g>
      </g>
    </g>
  </g>
</svg>
