<svg xmlns="http://www.w3.org/2000/svg" width="115.441" height="113.326" viewBox="0 0 115.441 113.326">
  <g id="Group_9263" data-name="Group 9263" transform="translate(0 0)">
    <path id="Path_29743" data-name="Path 29743" d="M252.129,370.472c-2.774-2.806-13.638-5.609-15.438-6.057l-.855-5.644a10.7,10.7,0,0,0,2.038-2.638,15.511,15.511,0,0,0,1.362-4.4c.16-.8.315-1.564.534-2.3a4.243,4.243,0,0,0,2.739-3.334,5.042,5.042,0,0,0-.148-2.783l.427-.142a1.462,1.462,0,0,0,.338-2.883v-2.417a13.794,13.794,0,0,0-7.265-11.968c-.039.092-.083.18-.12.271-2.349,5.741-2.4,13.809-2.375,15.6h-.815c-.024-1.867.027-10.031,2.431-15.9.129-.32.271-.638.416-.942a.408.408,0,0,0-.188-.538,15.01,15.01,0,0,0-6.681-1.558,14.759,14.759,0,0,0-6.64,1.55.409.409,0,0,0-.188.536c.144.314.29.627.425.956,2.4,5.868,2.447,14.034,2.424,15.9h-.815c.023-1.793-.02-9.867-2.363-15.594-.04-.1-.085-.189-.126-.284a13.794,13.794,0,0,0-7.272,11.97v2.417a1.462,1.462,0,0,0,.336,2.883l.432.143a5.034,5.034,0,0,0-.151,2.782,4.241,4.241,0,0,0,2.739,3.334c.22.738.374,1.5.537,2.3a15.445,15.445,0,0,0,1.359,4.4,10.726,10.726,0,0,0,2.04,2.641l-.851,5.642c-1.79.444-12.667,3.251-15.443,6.057-1.446,1.461-2.812,7.32-2.87,7.569L202,378.5h53.107l-.106-.458C254.941,377.792,253.575,371.934,252.129,370.472Zm-37.618-28.09a.445.445,0,0,0-.128-.022.656.656,0,1,1-.06-1.309l4.578,1.524a.355.355,0,0,0,.129.023h19.041a.345.345,0,0,0,.128-.023l4.577-1.524a.656.656,0,1,1-.06,1.309.445.445,0,0,0-.128.022l-4.584,1.528H219.1Zm5.373,13.4a14.921,14.921,0,0,1-1.285-4.19,24.976,24.976,0,0,0-.621-2.589l-.07-.222-.231-.036a3.363,3.363,0,0,1-2.356-2.8,4.354,4.354,0,0,1,.128-2.388L218.9,344.7a.485.485,0,0,0,.129.018h19.041a.47.47,0,0,0,.128-.018l3.456-1.152a4.3,4.3,0,0,1,.125,2.39,3.362,3.362,0,0,1-2.355,2.8l-.232.036-.069.222a24.4,24.4,0,0,0-.621,2.589,14.98,14.98,0,0,1-1.286,4.192,9.7,9.7,0,0,1-17.333,0Zm2.049,3.586a9.995,9.995,0,0,0,13.236,0l.818,5.368c0,.906-2.829,2.169-7.437,2.169s-7.437-1.263-7.441-2.111Zm-6.692,18.389h-12.3c.469-1.892,1.576-5.756,2.565-6.754,1.038-1.051,3.38-2.126,5.927-3.07l3.81,5.751Zm21.523-4.705H220.338l.02-.013-4.382-6.614c2.043-.615,3.761-1.063,4.483-1.246.6,1.6,4.45,2.468,8.094,2.468,3.616,0,7.425-.851,8.073-2.475.711.18,2.443.633,4.5,1.253l-4.382,6.614Zm5.1,4.705v-4.073l3.81-5.751c2.547.943,4.888,2.019,5.927,3.07.988,1,2.1,4.862,2.564,6.754Z" transform="translate(-170.831 -309.075)" fill="#fad6a5"/>
    <path id="Path_29744" data-name="Path 29744" d="M198.824,353.629v-.3a.561.561,0,0,0-.562-.561h-.588v-7.624l.276-1.157a.163.163,0,0,0,0-.067l-.281-1.763a.174.174,0,0,0-.171-.145h-1.123a.172.172,0,0,0-.17.147l-.282,1.762a.163.163,0,0,0,0,.067l.275,1.157v7.624h-.588a.561.561,0,0,0-.562.561v.3a.557.557,0,0,0,.421.54l-.537,3.135v7.362c0,.329.9.6,2,.6s2-.268,2-.6V357.3l-.537-3.135A.558.558,0,0,0,198.824,353.629Zm-2.638,10.019a.281.281,0,0,1-.561,0V358.58a.281.281,0,0,1,.561,0Zm1.034,0a.281.281,0,0,1-.562,0V358.58a.281.281,0,0,1,.562,0Zm.111-18.567a.226.226,0,0,0,0,.039v7.646h-.775V345.12a.115.115,0,0,0-.006-.039l-.271-1.142.252-1.583h.825l.252,1.583Zm.922,18.567a.281.281,0,0,1-.561,0V358.58a.281.281,0,0,1,.561,0Z" transform="translate(-171.921 -306.115)" fill="#fff"/>
    <path id="Path_29745" data-name="Path 29745" d="M256.637,360.149a11.8,11.8,0,0,0-.981-3.68,18.118,18.118,0,0,0-1.794-3.161c-.343-.491-.7-.964-1.082-1.426-.058-.07-.121-.141-.181-.211l.322-.016a.628.628,0,0,0,.144-1.231l.323-2.666a.159.159,0,0,0,0-.066l-1.321-5.419a.183.183,0,0,0-.177-.141h-2.474a.183.183,0,0,0-.178.141l-1.319,5.419a.21.21,0,0,0,0,.066l.323,2.667a.627.627,0,0,0,.143,1.229l.323.016c-.06.07-.122.141-.181.211-.376.462-.739.935-1.081,1.426a18.118,18.118,0,0,0-1.794,3.161,11.8,11.8,0,0,0-.982,3.68,8.529,8.529,0,0,0-.028,1,9.25,9.25,0,0,0,.082,1.018,8.384,8.384,0,0,0,.231,1.045c.113.406.208.621.307.9a1.659,1.659,0,0,0,.066.159,1.477,1.477,0,0,0,2.652-1.3l-.01-.022c-.121-.247-.281-.55-.327-.694a4.8,4.8,0,0,1-.211-.614,6.278,6.278,0,0,1-.134-.687,5.554,5.554,0,0,1-.06-.713,9.391,9.391,0,0,1,.465-3.007,16.38,16.38,0,0,1,1.281-2.973c.264-.481.547-.956.85-1.419.15-.233.307-.458.466-.686.115-.163.237-.326.357-.481.118.156.24.319.354.481.159.227.317.453.468.686.3.463.585.937.848,1.419a16.3,16.3,0,0,1,1.281,2.973,9.427,9.427,0,0,1,.468,3.007,6.62,6.62,0,0,1-.2,1.4,5.167,5.167,0,0,1-.212.614c-.046.144-.2.447-.326.694l-.015.029a1.618,1.618,0,0,0-.062.152,1.476,1.476,0,0,0,2.784.982c.1-.282.193-.5.307-.9a7.98,7.98,0,0,0,.23-1.045,9.242,9.242,0,0,0,.084-1.018A8.779,8.779,0,0,0,256.637,360.149Zm-6.17-9.879h-1.877l-.306-2.521,1.276-5.247h1.01l-.386.432a.188.188,0,0,0,0,.246l.551.615-.551.616a.186.186,0,0,0,0,.245l.551.618-.551.618a.185.185,0,0,0,0,.244l.335.376a1.152,1.152,0,0,0-.052,2.283Zm.185-1.824a.79.79,0,1,1,.788-.79A.791.791,0,0,1,250.651,348.445Zm.185,1.824v-1.475a1.153,1.153,0,0,0,.238-2.214l-.507-.567.552-.618a.184.184,0,0,0,0-.245l-.552-.618.552-.615a.183.183,0,0,0,0-.245l-.552-.616.5-.555h.68l1.274,5.247-.3,2.521Z" transform="translate(-164.248 -306.096)" fill="#fff"/>
    <path id="Path_29746" data-name="Path 29746" d="M285.954,405.544l4.433-13.721a1.11,1.11,0,0,0-1.057-1.453h-7.388V339.8a1.112,1.112,0,0,0-.555-.964l-48.11-27.776a1.117,1.117,0,0,0-1.112,0L184.055,338.84a1.112,1.112,0,0,0-.555.964v50.565h-7.389a1.112,1.112,0,0,0-1.057,1.453l4.433,13.721-4.433,13.72a1.112,1.112,0,0,0,1.057,1.453h11.833a1.111,1.111,0,0,0,1.112-1.112v-7.777h21.868l21.241,12.264a1.112,1.112,0,0,0,1.112,0l21.241-12.264h21.869v7.777a1.11,1.11,0,0,0,1.11,1.112h11.833a1.11,1.11,0,0,0,1.057-1.453Zm-100.231-65.1,47-27.134,47,27.134v49.926h-1.112v-7.777a1.094,1.094,0,0,0-.555-.941V341.727a.552.552,0,0,0-.278-.48L233,315.394a.555.555,0,0,0-.555,0l-44.776,25.853a.554.554,0,0,0-.278.48v39.924a1.094,1.094,0,0,0-.555.941v7.777h-1.111Zm2.776,41.038V342.049l44.221-25.532,44.223,25.532v39.432ZM186.833,418.5h-9.195l4.073-12.61a1.115,1.115,0,0,0,0-.683l-4.073-12.611h9.195v25.9Zm45.887,3.352-17.353-10.019H218.7l13.743,7.935a.551.551,0,0,0,.555,0l13.742-7.935h3.334Zm-11.8-10.019h23.6l-11.8,6.812Zm-31.865-2.222V383.7h87.331v25.9Zm89.553,8.889v-25.9H287.8L283.729,405.2a1.133,1.133,0,0,0,0,.683L287.8,418.5Z" transform="translate(-175 -310.916)" fill="#fad6a5"/>
    <path id="Path_29747" data-name="Path 29747" d="M193.764,378.2h.7v4.819h-.7v1.477h6.7v-2.51h-1.921v1.033h-1.777v-1.811h2.11V379.73h-2.11V378.2h1.777v.987h1.921v-2.454h-6.7Z" transform="translate(-172.102 -300.753)" fill="#fff"/>
    <path id="Path_29748" data-name="Path 29748" d="M206.267,381.607H204.4v1.41h-1.432V378.2h.589v-1.467h-3.509V378.2h.611v4.819h-.611v1.477h6.218Z" transform="translate(-171.132 -300.753)" fill="#fff"/>
    <path id="Path_29749" data-name="Path 29749" d="M212.615,381.985h-1.921v1.033h-1.777v-1.811h2.11V379.73h-2.11V378.2h1.777v.987h1.921v-2.454h-6.7V378.2h.7v4.819h-.7v1.477h6.7Z" transform="translate(-170.225 -300.753)" fill="#fff"/>
    <path id="Path_29750" data-name="Path 29750" d="M216.027,384.69a4.556,4.556,0,0,0,3.365-1.565l-1.3-1.422a2.66,2.66,0,0,1-1.766,1.089c-1.054,0-1.621-.988-1.621-2.087,0-1.212.522-2.2,1.321-2.2s1.145.678,1.177,1.4h1.988v-3.155h-1.743l-.255.623a2.051,2.051,0,0,0-1.71-.756,3.869,3.869,0,0,0-3.377,4.088A3.69,3.69,0,0,0,216.027,384.69Z" transform="translate(-169.27 -300.771)" fill="#fff"/>
    <path id="Path_29751" data-name="Path 29751" d="M220.343,378.2h.955v4.819h-.91v1.477h4.131v-1.477H223.6V378.2h.933v1.42h1.632v-2.887H218.71v2.887h1.632Z" transform="translate(-168.251 -300.753)" fill="#fff"/>
    <path id="Path_29752" data-name="Path 29752" d="M233.35,382.851v-.611h-.745v.366c0,.223-.089.357-.256.357-.2,0-.266-.278-.266-.755a1.6,1.6,0,0,1,.156-3.188c0-1.265-.5-2.288-3.077-2.288h-3.609v1.456h.622v4.84h-.622v1.467h3.586v-1.467h-.676v-1.72c.988,0,1.109.245,1.109,1.255a1.89,1.89,0,0,0,2.154,2.065C232.961,384.627,233.35,383.773,233.35,382.851Zm-4.387-2.788h-.5v-1.887h.555a.9.9,0,0,1,1.011.989C230.03,379.753,229.606,380.063,228.963,380.063Z" transform="translate(-167.194 -300.753)" fill="#fff"/>
    <path id="Path_29753" data-name="Path 29753" d="M236.333,383.018h-.689V378.2h.689v-1.467h-3.686V378.2h.7v4.819h-.7v1.477h3.686Z" transform="translate(-166.099 -300.753)" fill="#fff"/>
    <path id="Path_29754" data-name="Path 29754" d="M240.147,384.69a4.555,4.555,0,0,0,3.364-1.565l-1.3-1.422a2.666,2.666,0,0,1-1.765,1.089c-1.055,0-1.622-.988-1.622-2.087,0-1.212.522-2.2,1.322-2.2s1.143.678,1.177,1.4h1.986v-3.155h-1.743l-.254.623a2.052,2.052,0,0,0-1.711-.756,3.869,3.869,0,0,0-3.375,4.088A3.691,3.691,0,0,0,240.147,384.69Z" transform="translate(-165.546 -300.771)" fill="#fff"/>
    <path id="Path_29755" data-name="Path 29755" d="M248.892,376.731h-4.263v1.434h.454l-1.5,4.874h-.755v1.456h3.533v-1.456H245.5l.232-.755H248l.234.755h-1.055v1.456h4.453v-1.456h-.778Zm-2.754,4.221.721-2.4.733,2.4Z" transform="translate(-164.526 -300.753)" fill="#fff"/>
    <path id="Path_29756" data-name="Path 29756" d="M255.2,383.018h-1.433V378.2h.588v-1.467h-3.509V378.2h.611v4.819h-.611v1.477h6.218v-2.887H255.2Z" transform="translate(-163.289 -300.753)" fill="#fff"/>
    <path id="Path_29757" data-name="Path 29757" d="M202.648,389.215c0-.389.444-.589.767-.589a1.3,1.3,0,0,1,1.421,1.289h2.011v-2.788h-1.911l-.111.933a2.491,2.491,0,0,0-2.322-1.132,2.528,2.528,0,0,0-2.642,2.386c0,2.832,4.264,2.466,4.264,3.333,0,.465-.555.554-.944.554-.466-.021-1.4-.177-1.4-1.111h-2.065v2.8h1.943l.122-.854a3,3,0,0,0,2.322,1.023c1.321,0,2.941-.623,2.941-2.355C207.045,390.092,202.648,390.358,202.648,389.215Z" transform="translate(-171.183 -299.179)" fill="#fff"/>
    <path id="Path_29758" data-name="Path 29758" d="M206.55,388.566h.7v4.819h-.7v1.477h6.7v-2.509h-1.921v1.033h-1.777v-1.809h2.11V390.1h-2.11v-1.532h1.777v.989h1.921V387.1h-6.7Z" transform="translate(-170.128 -299.152)" fill="#fff"/>
    <path id="Path_29759" data-name="Path 29759" d="M219.886,392.976c0,.222-.089.354-.255.354-.2,0-.267-.277-.267-.754a1.6,1.6,0,0,1,.155-3.188c0-1.265-.5-2.287-3.075-2.287h-3.609v1.455h.621V393.4h-.621v1.465h3.587V393.4h-.678v-1.72c.988,0,1.111.242,1.111,1.253A1.89,1.89,0,0,0,219.009,395c1.232,0,1.622-.855,1.622-1.778v-.611h-.745Zm-3.642-2.544h-.5v-1.886h.555a.9.9,0,0,1,1.01.988C217.309,390.121,216.888,390.431,216.244,390.431Z" transform="translate(-169.158 -299.152)" fill="#fff"/>
    <path id="Path_29760" data-name="Path 29760" d="M225.244,388.545h.589l-1.011,2.42a5.6,5.6,0,0,0-.4,1.411h-.055a6.931,6.931,0,0,0-.344-1.344l-.944-2.487h.6V387.1h-4.087v1.444h.612l2.941,6.317h2.044l2.664-6.317h.545V387.1h-3.154Z" transform="translate(-168.115 -299.152)" fill="#fff"/>
    <path id="Path_29761" data-name="Path 29761" d="M227.368,388.566h.7v4.819h-.7v1.477h3.686v-1.477h-.689v-4.819h.689V387.1h-3.686Z" transform="translate(-166.914 -299.152)" fill="#fff"/>
    <path id="Path_29762" data-name="Path 29762" d="M235.167,393.16c-1.054,0-1.621-.988-1.621-2.088,0-1.21.522-2.2,1.322-2.2s1.143.679,1.176,1.4h1.988v-3.154h-1.744l-.255.622a2.046,2.046,0,0,0-1.709-.756,3.87,3.87,0,0,0-3.377,4.087,3.691,3.691,0,0,0,3.92,3.986,4.553,4.553,0,0,0,3.364-1.565l-1.3-1.42A2.667,2.667,0,0,1,235.167,393.16Z" transform="translate(-166.361 -299.17)" fill="#fff"/>
    <path id="Path_29763" data-name="Path 29763" d="M237.647,388.566h.7v4.819h-.7v1.477h6.7v-2.509h-1.921v1.033h-1.777v-1.809h2.109V390.1h-2.109v-1.532h1.777v.989h1.921V387.1h-6.7Z" transform="translate(-165.327 -299.152)" fill="#fff"/>
    <path id="Path_29764" data-name="Path 29764" d="M246.863,389.215c0-.389.443-.589.767-.589a1.3,1.3,0,0,1,1.42,1.289h2.01v-2.788H249.15l-.112.933a2.487,2.487,0,0,0-2.319-1.132,2.527,2.527,0,0,0-2.642,2.386c0,2.832,4.263,2.466,4.263,3.333,0,.465-.555.554-.944.554-.468-.021-1.4-.177-1.4-1.111h-2.065v2.8h1.942l.124-.854a2.992,2.992,0,0,0,2.319,1.023c1.322,0,2.943-.623,2.943-2.355C251.259,390.092,246.863,390.358,246.863,389.215Z" transform="translate(-164.356 -299.179)" fill="#fff"/>
  </g>
</svg>
