<svg xmlns="http://www.w3.org/2000/svg" width="23.646" height="17.838" viewBox="0 0 23.646 17.838">
  <g id="Group_32876" data-name="Group 32876" transform="translate(-5 -16.053)">
    <path id="Path_469" data-name="Path 469" d="M24.622,25.416a6.362,6.362,0,0,0,1.046-3.528c0-3.217-2.283-5.835-5.09-5.835a4.784,4.784,0,0,0-3.645,1.772A5.13,5.13,0,0,0,13.5,16.468c-3.088,0-5.6,2.884-5.6,6.43a6.994,6.994,0,0,0,1.3,4.111C6.688,28.21,5,30.377,5,32.854c0,.132.011.262.023.393l.056.645H22.346l.055-.641c.012-.132.023-.262.023-.4a5.417,5.417,0,0,0-.111-1.037h6.258l.055-.634c.011-.119.021-.239.021-.361C28.646,28.5,27.021,26.481,24.622,25.416ZM20.578,17.3c2.121,0,3.845,2.059,3.845,4.59s-1.725,4.59-3.845,4.59a3.385,3.385,0,0,1-2.063-.723,7.16,7.16,0,0,0,.59-2.856,6.983,6.983,0,0,0-1.327-4.146A3.576,3.576,0,0,1,20.578,17.3Zm-2.607,9.591-.063-.03.006-.009ZM9.149,22.9c0-2.859,1.954-5.185,4.356-5.185S17.86,20.039,17.86,22.9s-1.954,5.186-4.356,5.186S9.149,25.757,9.149,22.9Zm-2.9,9.749c.1-2.01,1.619-3.75,3.825-4.677a5.029,5.029,0,0,0,6.992-.114c2.358.894,4.005,2.7,4.107,4.791Zm15.665-2.074a7.218,7.218,0,0,0-2.89-3.13,4.477,4.477,0,0,0,1.553.28,4.687,4.687,0,0,0,3.212-1.313,5.128,5.128,0,0,1,3.6,4.164Z" fill="#9e9999"/>
  </g>
</svg>
