<svg xmlns="http://www.w3.org/2000/svg" width="121.36" height="131.662" viewBox="0 0 121.36 131.662">
  <g id="Group_9261" data-name="Group 9261" transform="translate(0 0)">
    <g id="Group_9256" data-name="Group 9256" transform="translate(12.636 47.014)">
      <path id="Path_29725" data-name="Path 29725" d="M272.677,91.412H248.322v.3l-13.947-3.738-.018.071-6.873-1.841-.67,2.5,6.877,1.839-.021.072,14.653,3.927v1.234H233.267v.075h-7.119v2.586h7.119v.075h15.056v1.23l-14.655,3.927.024.071-6.877,1.841.67,2.5,6.873-1.841.021.072,13.944-3.737v.3H272.68Zm-24.355,10.5-13.49,3.614-.371-1.394,13.861-3.712Zm0-4.041H233.915V96.424h14.408Zm0-3.995-13.861-3.713.371-1.393,13.49,3.615Z" transform="translate(-176.592 -72.385)" fill="#fafafa"/>
      <path id="Path_29726" data-name="Path 29726" d="M234.375,106.8l-6.873-1.842.02-.072-14.655-3.925V99.728h15.057v-.075h7.118V97.066h-7.118v-.074H212.866V95.76l14.655-3.925-.022-.076,6.875-1.839-.67-2.5L226.83,89.26l-.02-.07-13.942,3.737,0-.3H188.509l0,11.468h24.355v-.3l13.632,3.651.312.087.02-.072L233.7,109.3ZM212.866,93.6l13.49-3.614.373,1.393L212.866,95.09Zm0,4.041h14.409l0,1.443H212.866Zm13.486,9.1-13.486-3.613v-1.493l13.86,3.715Z" transform="translate(-188.509 -72.001)" fill="#fafafa"/>
      <path id="Path_29727" data-name="Path 29727" d="M223.919,82.335l-4.99,3.139,5.357-2.467-1.313,5.749,2.042-5.533,3.141,4.993-2.467-5.357,5.749,1.311-5.532-2.042,4.992-3.139-5.358,2.467,1.315-5.748-2.044,5.532-3.139-4.993L224.14,81.6l-5.75-1.313Z" transform="translate(-179.048 -75.709)" fill="#fafafa"/>
      <path id="Path_29728" data-name="Path 29728" d="M235.294,81.966l-2.422,2.728,2.754-2.392.217,3.641L236.1,82.3l2.731,2.423-2.394-2.754,3.641-.217-3.639-.256,2.422-2.728-2.754,2.393-.216-3.641-.258,3.64-2.724-2.422L235.3,81.5l-3.641.217Z" transform="translate(-174.848 -75.134)" fill="#fafafa"/>
      <path id="Path_29729" data-name="Path 29729" d="M214.075,85.812l2.424-2.728-2.754,2.392-.216-3.642-.254,3.641-2.73-2.421,2.394,2.753-3.641.219,3.639.253-2.42,2.729,2.752-2.393.217,3.641.253-3.639,2.728,2.423-2.391-2.754,3.64-.217Z" transform="translate(-181.927 -73.769)" fill="#fafafa"/>
    </g>
    <path id="Path_29730" data-name="Path 29730" d="M239.59,171.662a25.507,25.507,0,0,1-12.546-3.008l-35.585-20.546c-6.918-3.995-12.546-13.744-12.546-21.731V85.285c0-7.987,5.629-17.736,12.546-21.731l35.585-20.546a27.667,27.667,0,0,1,25.093,0l35.589,20.546c6.916,3.995,12.546,13.744,12.546,21.731v41.092c0,7.987-5.63,17.736-12.546,21.731l-35.589,20.546A25.5,25.5,0,0,1,239.59,171.662Zm0-128.922a22.745,22.745,0,0,0-11.177,2.641L192.827,65.927c-6.058,3.5-11.175,12.364-11.175,19.358v41.092c0,6.994,5.118,15.86,11.175,19.358l35.585,20.546a24.969,24.969,0,0,0,22.354,0l35.591-20.546c6.056-3.5,11.177-12.364,11.177-19.358V85.285c0-6.994-5.12-15.86-11.177-19.358L250.766,45.381A22.738,22.738,0,0,0,239.59,42.74Z" transform="translate(-178.912 -40)" fill="#dc7832"/>
    <path id="Path_29731" data-name="Path 29731" d="M238.437,164.927a24.822,24.822,0,0,1-12.2-2.916l-31.476-18.175c-6.729-3.885-12.205-13.368-12.205-21.138V86.353c0-7.771,5.476-17.254,12.205-21.14L226.233,47.04a27,27,0,0,1,24.41,0l31.479,18.173c6.729,3.885,12.2,13.369,12.2,21.14V122.7c0,7.771-5.474,17.253-12.2,21.138l-31.479,18.175A24.826,24.826,0,0,1,238.437,164.927Zm0-119.434a23.432,23.432,0,0,0-11.519,2.733L195.442,66.4c-6.351,3.668-11.519,12.618-11.519,19.953V122.7c0,7.334,5.168,16.284,11.519,19.952l31.476,18.175a25.639,25.639,0,0,0,23.038,0l31.482-18.175c6.351-3.668,11.518-12.618,11.518-19.952V86.353c0-7.335-5.166-16.285-11.518-19.953L249.956,48.227A23.422,23.422,0,0,0,238.437,45.493Z" transform="translate(-177.76 -38.694)" fill="#fad6a5"/>
    <g id="Group_9258" data-name="Group 9258" transform="translate(27.871 16.56)">
      <g id="Group_9257" data-name="Group 9257">
        <path id="Path_29732" data-name="Path 29732" d="M209.287,62.094c.571-.225.861-.334,1.438-.545.061,2.033.092,3.049.153,5.082-1.87.5-2.8.781-4.623,1.393-.045-1.835-.07-2.753-.116-4.588.589-.271.887-.4,1.484-.66-.045-1.666-.068-2.5-.113-4.161a45.09,45.09,0,0,0-7.428,4.75v3.277c.494-.3.745-.445,1.245-.731.036,4.538.051,6.81.087,11.349-.535.07-.8.105-1.332.178v3.277c3.211-.028,4.816-.039,8.031-.062-.045-1.664-.066-2.5-.111-4.162-.612.062-.918.1-1.527.162-.046-1.834-.07-2.753-.117-4.587,1.846-.421,2.775-.611,4.649-.957.061,2.034.092,3.049.153,5.082-.586.051-.876.078-1.46.134.05,1.727.078,2.591.128,4.318,3.224-.02,4.839-.026,8.066-.039-.051-1.962-.079-2.944-.13-4.907-.577.036-.864.055-1.44.093-.174-6.353-.262-9.528-.436-15.881.582-.158.872-.234,1.455-.378-.05-1.963-.076-2.944-.126-4.907a44.947,44.947,0,0,0-8.054,3.149C209.21,59.5,209.237,60.365,209.287,62.094Z" transform="translate(-200.081 -51.929)" fill="#dc7832"/>
        <path id="Path_29733" data-name="Path 29733" d="M214.185,59.715c.637-.142.955-.211,1.6-.338.147,6.642.226,9.965.375,16.608-.629.032-.944.047-1.572.083.05,2.005.072,3.008.121,5.014,3.3-.012,4.948-.016,8.245-.021-.024-2.126-.036-3.191-.059-5.319-.624.014-.935.022-1.558.041-.095-6.892-.142-10.337-.237-17.229.64-.071.961-.105,1.6-.163-.021-2.111-.034-3.166-.057-5.278a45.383,45.383,0,0,0-8.584,1.63C214.11,56.73,214.136,57.724,214.185,59.715Z" transform="translate(-195.655 -52.409)" fill="#dc7832"/>
        <path id="Path_29734" data-name="Path 29734" d="M231.991,71.242c.617.026.926.041,1.54.074-.009.666-.011,1-.02,1.667a2.424,2.424,0,0,1-2.44,1.874c-2.188-.051-3.442-3.367-3.43-7.484.012-4.041,1.482-7.578,3.577-7.424,1.523.113,2.831,2.089,2.862,5.3,1.826.165,2.735.27,4.545.529.1-4.517.157-6.775.257-11.293-1.53-.369-2.3-.527-3.848-.782-.236,1.1-.355,1.648-.59,2.757-.405-.691-1.242-3.644-5.047-3.877-4.093-.25-8,6.133-7.926,14.88.078,8.669,3.576,14.125,7.919,14.125a4.508,4.508,0,0,0,4.034-2.854c.295,1,.446,1.5.739,2.5l4.968.013c.09-3.8.133-5.7.224-9.491.4.038.6.059,1,.1.039-1.608.059-2.412.1-4.02a82.3,82.3,0,0,0-8.416-.866C232.02,68.679,232.012,69.534,231.991,71.242Z" transform="translate(-193.309 -52.578)" fill="#dc7832"/>
        <path id="Path_29735" data-name="Path 29735" d="M254.2,66.643V63.366a45.122,45.122,0,0,0-7.449-4.761c-.046,1.666-.07,2.5-.113,4.166.565.242.848.365,1.409.621-.046,1.839-.075,2.758-.121,4.6-1.825-.61-2.752-.885-4.621-1.385.059-2.037.093-3.056.153-5.091.607.22.915.334,1.517.571.049-1.729.072-2.592.124-4.321a45.014,45.014,0,0,0-8.034-3.139c-.051,1.963-.076,2.944-.128,4.907.554.137.835.209,1.385.358-.172,6.358-.262,9.538-.437,15.9-.545-.036-.82-.054-1.368-.088-.051,1.963-.074,2.945-.125,4.907,3.216.013,4.821.02,8.038.039.051-1.727.078-2.594.126-4.322-.612-.058-.919-.083-1.533-.137.062-2.037.09-3.055.151-5.093,1.872.344,2.806.533,4.652.952-.049,1.839-.067,2.758-.116,4.6-.578-.063-.872-.092-1.452-.151-.046,1.664-.07,2.5-.116,4.163,3.224.021,4.835.033,8.056.061,0-1.311,0-1.967,0-3.277-.563-.076-.847-.115-1.409-.188.038-4.553.057-6.828.095-11.38C253.416,66.174,253.68,66.328,254.2,66.643Z" transform="translate(-188.584 -51.929)" fill="#dc7832"/>
      </g>
    </g>
    <g id="Group_9260" data-name="Group 9260" transform="translate(22.552 90.783)">
      <g id="Group_9259" data-name="Group 9259">
        <path id="Path_29736" data-name="Path 29736" d="M202.207,119.08a12.006,12.006,0,0,1,.629-2.471c.606-1.684.914-2.57,1.539-4.436l-.79-.09c.046-1.116.066-1.675.112-2.793,1.709.024,2.562.036,4.272.057-.057,1.271-.084,1.905-.142,3.177l-.735-.071c-1.683,5.313-2.513,7.713-4.083,11.817-1.049-.592-1.568-.9-2.6-1.552a76.145,76.145,0,0,0-3.561-11.477l-.812-.113V109.17c2.211.04,3.321.057,5.535.091-.038,1.032-.057,1.548-.093,2.581l-.8-.1c.449,1.783.668,2.72,1.1,4.682a18.314,18.314,0,0,1,.357,2.627Z" transform="translate(-196.041 -108.883)" fill="#dc7832"/>
        <path id="Path_29737" data-name="Path 29737" d="M204.874,117.891c.237-5.29,2.57-8.938,5.689-8.938,3.692,0,5.26,4.4,5.029,11.125-.232,6.76-2.35,10.434-5.777,9.168C206.643,128.073,204.6,124.013,204.874,117.891Zm6.912,1.6c.138-3.426-.271-6.195-1.414-6.3-.907-.084-1.652,2.2-1.8,5.507-.153,3.5.45,5.938,1.419,6.221S211.644,123,211.786,119.488Z" transform="translate(-193.252 -108.952)" fill="#dc7832"/>
        <path id="Path_29738" data-name="Path 29738" d="M218.68,109.415c-.039,1.667-.063,2.5-.1,4.166-.324-.012-.486-.016-.807-.029-.137,5.446-.205,8.167-.344,13.614.806.12,1.209.175,2.017.274.034-1.617.051-2.427.084-4.043,1.043.1,1.567.144,2.612.215-.05,3.361-.076,5.041-.129,8.4a53.015,53.015,0,0,1-8.8-1.564c.054-1.6.082-2.405.134-4.009.34.071.511.1.851.171.167-5.281.25-7.923.416-13.2-.333-.017-.5-.025-.833-.043.053-1.59.084-2.386.136-3.977C215.819,109.4,216.772,109.406,218.68,109.415Z" transform="translate(-190.605 -108.815)" fill="#dc7832"/>
        <path id="Path_29739" data-name="Path 29739" d="M230.858,117.891c-.906.025-1.356.036-2.262.049-.008-1.676-.013-2.516-.021-4.192-.512,0-.772.005-1.285.007.012,5.693.021,8.54.032,14.234.524-.007.786-.012,1.31-.028.007,1.743.013,2.613.021,4.355a53.267,53.267,0,0,1-5.925-.066c.013-1.738.022-2.606.037-4.343.517.025.774.034,1.292.05.033-5.684.047-8.526.078-14.212-.524,0-.787-.007-1.311-.013-.016,1.672-.021,2.508-.034,4.18-.907-.021-1.359-.034-2.262-.07.046-3.369.071-5.053.117-8.424,4.049.012,6.074.013,10.125.005C230.8,112.812,230.823,114.5,230.858,117.891Z" transform="translate(-188.288 -108.804)" fill="#dc7832"/>
        <path id="Path_29740" data-name="Path 29740" d="M235.061,131.361c-.042-1.647-.059-2.469-.1-4.114.592-.088.887-.134,1.479-.234-.154-.822-.23-1.232-.383-2.061-1.272.186-1.913.266-3.191.4-.112.88-.166,1.321-.279,2.2.488-.057.727-.086,1.217-.15.037,1.66.055,2.488.092,4.15-2.005.321-3.012.444-5.033.606-.02-1.705-.028-2.557-.049-4.262.429-.029.641-.045,1.068-.078.772-5.756,1.144-8.619,1.862-14.271-.25.008-.378.009-.627.016-.03-1.659-.043-2.488-.071-4.147,2.317-.008,3.475-.013,5.793-.028,1.278,6.977,1.934,10.379,3.261,16.911.432-.095.648-.146,1.08-.248.057,1.54.083,2.309.14,3.85A53.021,53.021,0,0,1,235.061,131.361Zm.319-10.079c-.477-2.657-.71-4-1.178-6.706-.33,2.741-.5,4.124-.84,6.9C234.171,121.409,234.571,121.368,235.38,121.283Z" transform="translate(-185.666 -108.812)" fill="#dc7832"/>
        <path id="Path_29741" data-name="Path 29741" d="M245.88,125.654a4.4,4.4,0,0,1-2.329,2.839c-2.638,1.026-4.937-2.33-5.172-8.637-.237-6.365,1.872-10.754,4.222-10.762a3.25,3.25,0,0,1,3.032,2.117c.092-.736.141-1.1.236-1.826.9-.011,1.346-.017,2.243-.029.125,2.8.187,4.195.313,6.99-1.068.225-1.6.334-2.67.537-.136-2.049-.972-3.134-1.859-3.04-1.22.128-1.962,2.628-1.846,5.378.118,2.806.974,4.854,2.278,4.444a2.152,2.152,0,0,0,1.381-1.719c-.017-.429-.028-.644-.049-1.073-.362.1-.548.151-.912.25-.049-1.118-.072-1.675-.124-2.794,1.993-.413,2.983-.643,4.945-1.143.043.981.065,1.473.105,2.456-.234.078-.348.117-.583.194.1,2.336.154,3.5.257,5.838-1.165.589-1.751.865-2.939,1.389C246.2,126.506,246.093,126.225,245.88,125.654Z" transform="translate(-182.642 -108.907)" fill="#dc7832"/>
        <path id="Path_29742" data-name="Path 29742" d="M256.14,109.17V112.5c-1,.233-1.51.345-2.52.562-.013-.62-.018-.93-.034-1.548-.943.125-1.419.187-2.367.3.036,1.073.054,1.608.09,2.681,1.111-.267,1.669-.407,2.77-.7.014.906.02,1.36.038,2.265-1.08.425-1.626.628-2.724,1.019.045,1.267.064,1.9.108,3.165.908-.456,1.356-.691,2.249-1.18-.013-.648-.021-.972-.034-1.619.977-.445,1.463-.675,2.425-1.152V119.7a52.821,52.821,0,0,1-8.388,5.345c-.051-1.2-.08-1.8-.132-3,.366-.157.55-.237.914-.4-.158-3.789-.234-5.684-.394-9.473l-.939.1c-.051-1.189-.08-1.781-.129-2.97C250.7,109.263,252.516,109.235,256.14,109.17Z" transform="translate(-179.884 -108.883)" fill="#dc7832"/>
      </g>
    </g>
  </g>
</svg>
