<svg xmlns="http://www.w3.org/2000/svg" width="124.089" height="124.077" viewBox="0 0 124.089 124.077">
  <g id="mission" transform="translate(0.003)">
    <g id="Group_32888" data-name="Group 32888" transform="translate(45.247)">
      <g id="Group_32887" data-name="Group 32887">
        <path id="Path_107720" data-name="Path 107720" d="M42.354,25.849H12.627A3.879,3.879,0,0,1,8.75,21.972V3.877A3.879,3.879,0,0,1,12.627,0H42.354A3.88,3.88,0,0,1,45.3,6.405l-5.589,6.519L45.3,19.449a3.876,3.876,0,0,1-2.947,6.4Z" transform="translate(-8.75)" fill="#f44336"/>
      </g>
    </g>
    <g id="Group_32890" data-name="Group 32890" transform="translate(45.247)">
      <g id="Group_32889" data-name="Group 32889">
        <path id="Path_107721" data-name="Path 107721" d="M12.627,41.359A3.879,3.879,0,0,1,8.75,37.482V3.877a3.877,3.877,0,1,1,7.755,0v33.6A3.879,3.879,0,0,1,12.627,41.359Z" transform="translate(-8.75)" fill="#607d8b"/>
      </g>
    </g>
    <g id="Group_32892" data-name="Group 32892" transform="translate(28.187 33.586)">
      <g id="Group_32891" data-name="Group 32891">
        <path id="Path_107722" data-name="Path 107722" d="M47.636,40.222,36.624,49.528a3.824,3.824,0,0,1-5.222-.207l-5.015-5.015-5.015,5.015a3.836,3.836,0,0,1-5.222.207l-10.7-9L9.276,33.6l13.7-25.074a3.854,3.854,0,0,1,3.412-2.016,3.609,3.609,0,0,1,3.36,1.965l14.01,24.867Z" transform="translate(-5.45 -6.497)" fill="#eceff1"/>
      </g>
    </g>
    <g id="Group_32894" data-name="Group 32894" transform="translate(45.247)">
      <g id="Group_32893" data-name="Group 32893">
        <path id="Path_107723" data-name="Path 107723" d="M12.627,0A3.879,3.879,0,0,0,8.75,3.877v32.6l.465-.853A3.854,3.854,0,0,1,12.627,33.6Z" transform="translate(-8.75)" fill="#546d79"/>
      </g>
    </g>
    <g id="Group_32896" data-name="Group 32896" transform="translate(28.187 33.604)">
      <g id="Group_32895" data-name="Group 32895">
        <path id="Path_107724" data-name="Path 107724" d="M26.388,6.5a3.854,3.854,0,0,0-3.412,2.016l-.465.853L9.276,33.59,5.45,40.518l10.7,9a3.838,3.838,0,0,0,5.222-.207l5.015-5.015Z" transform="translate(-5.45 -6.5)" fill="#cdd0d2"/>
      </g>
    </g>
    <g id="Group_32898" data-name="Group 32898" transform="translate(64.158 67.214)">
      <g id="Group_32897" data-name="Group 32897">
        <path id="Path_107725" data-name="Path 107725" d="M68.461,69.865H16.286a3.872,3.872,0,0,1-3.453-5.635L37.865,15.115A3.876,3.876,0,0,1,44.71,15L71.852,64.116a3.871,3.871,0,0,1-3.391,5.749Z" transform="translate(-12.408 -13.001)" fill="#f9c8cf"/>
      </g>
    </g>
    <g id="Group_32900" data-name="Group 32900" transform="translate(64.158 67.208)">
      <g id="Group_32899" data-name="Group 32899">
        <path id="Path_107726" data-name="Path 107726" d="M41.252,13a3.879,3.879,0,0,0-3.386,2.114L12.833,64.228a3.878,3.878,0,0,0,3.453,5.64H41.319V13.005C41.3,13.005,41.277,13,41.252,13Z" transform="translate(-12.408 -13)" fill="#f8a5b2"/>
      </g>
    </g>
    <g id="Group_32902" data-name="Group 32902" transform="translate(-0.003 67.312)">
      <g id="Group_32901" data-name="Group 32901">
        <path id="Path_107727" data-name="Path 107727" d="M99.014,64,70.373,13.02,59.361,22.326a3.824,3.824,0,0,1-5.222-.207L49.125,17.1,44.11,22.119a3.836,3.836,0,0,1-5.222.207l-10.7-9L.476,64.047a3.882,3.882,0,0,0,.052,3.826,3.969,3.969,0,0,0,3.36,1.913H95.654a3.9,3.9,0,0,0,3.36-1.913A3.98,3.98,0,0,0,99.014,64Z" transform="translate(0.003 -13.02)" fill="#f9c8cf"/>
      </g>
    </g>
    <g id="Group_32904" data-name="Group 32904" transform="translate(-0.003 67.622)">
      <g id="Group_32903" data-name="Group 32903">
        <path id="Path_107728" data-name="Path 107728" d="M28.187,13.08.476,63.8a3.883,3.883,0,0,0,.052,3.826,3.97,3.97,0,0,0,3.36,1.913H49.125V16.854L44.11,21.869A3.854,3.854,0,0,1,41.386,23a3.814,3.814,0,0,1-2.5-.925Z" transform="translate(0.003 -13.08)" fill="#f8a5b2"/>
      </g>
    </g>
  </g>
</svg>
