<svg xmlns="http://www.w3.org/2000/svg" width="18.713" height="21.519" viewBox="0 0 18.713 21.519">
  <g id="Group_32875" data-name="Group 32875" transform="translate(-240.144 -833)">
    <g id="noun_rank_2421958" transform="translate(157.888 815.112)">
      <g id="Group_440" data-name="Group 440" transform="translate(82.256 17.888)">
        <g id="Group_433" data-name="Group 433" transform="translate(4.081 0)">
          <g id="Group_432" data-name="Group 432">
            <path id="Path_465" data-name="Path 465" d="M274.577,18.1q-.663,1.316-1.324,2.635c-.063.124-.124.248-.187.372l.261-.2-2.918.409-.411.059a.428.428,0,0,0-.3.3.437.437,0,0,0,.111.425l2.116,2.012c.1.1.2.194.3.29l-.111-.425q-.31,1.44-.623,2.878c-.028.135-.059.27-.087.407a.442.442,0,0,0,.64.492q1.372-.735,2.741-1.472l.39-.209h-.44q1.372.735,2.741,1.472l.39.209a.441.441,0,0,0,.64-.492q-.31-1.44-.623-2.878c-.028-.135-.059-.27-.087-.407l-.111.425L279.8,22.4c.1-.1.2-.194.3-.29a.436.436,0,0,0,.111-.425.428.428,0,0,0-.3-.3L277,20.97l-.412-.059.261.2q-.663-1.316-1.324-2.635c-.063-.124-.124-.248-.187-.372a.439.439,0,0,0-.6-.157.447.447,0,0,0-.157.6l1.333,2.654c.059.115.111.237.176.351.12.207.3.209.507.237.57.081,1.139.161,1.709.24l1.376.194c-.063-.242-.128-.486-.192-.727q-1.075,1.019-2.147,2.04c-.089.085-.185.168-.272.257-.192.2-.109.442-.059.673l.366,1.692c.1.449.194.9.292,1.348l.64-.492q-1.385-.741-2.767-1.485c-.12-.065-.24-.133-.361-.194-.259-.131-.451,0-.664.118l-1.618.869-1.289.692.64.492q.314-1.447.625-2.894c.028-.128.059-.259.085-.388.057-.292-.1-.42-.279-.588l-1.248-1.184-1.006-.956c-.063.242-.128.486-.192.727q1.47-.206,2.939-.414c.128-.017.261-.026.388-.054.216-.048.287-.25.375-.422.259-.514.516-1.03.775-1.544.209-.414.416-.827.625-1.243a.445.445,0,0,0-.157-.6A.454.454,0,0,0,274.577,18.1Z" transform="translate(-269.678 -17.888)" fill="#9e9999"/>
          </g>
        </g>
        <g id="Group_435" data-name="Group 435" transform="translate(5.671 10.577)">
          <g id="Group_434" data-name="Group 434">
            <path id="Path_466" data-name="Path 466" d="M349.2,504.872v8.145c0,.375-.015.753,0,1.128v.015l.435-.435h-6.5l.436.435v-9.254a.509.509,0,0,0,0-.1s-.017.089-.007.041c0-.015,0-.028.009-.044s.031-.068.024-.085c0,0-.039.076-.015.037.009-.017.017-.035.026-.05s.015-.024.022-.037c.033-.061-.02.015-.017.017a.447.447,0,0,1,.12-.12c.009,0-.078.046-.03.026a.331.331,0,0,0,.037-.022l.037-.02.026-.013c.022-.011.017-.009-.013,0l-.026.011.041-.013a.247.247,0,0,1,.044-.011c.015,0,.028,0,.044-.009.048-.011-.039.007-.041.007s.05,0,.063,0h4.973c.083,0-.074-.02,0,0l.085.022c.065.017-.024-.011-.022-.013a.2.2,0,0,1,.052.026.475.475,0,0,1,.074.046s-.065-.059-.03-.024a.372.372,0,0,0,.033.028c.022.02.039.041.059.061.052.054-.035-.063,0,0,.013.026.028.05.041.074.035.063-.024-.078,0,.017.009.028.013.057.02.087.011.05-.009-.041-.007-.041v.059a.435.435,0,1,0,.871,0,1.234,1.234,0,0,0-1.217-1.215c-.122,0-.244,0-.366,0h-4.522a1.247,1.247,0,0,0-1.1.6,2.066,2.066,0,0,0-.165,1.1v8.8a.442.442,0,0,0,.435.435h6.5a.442.442,0,0,0,.435-.435v-8.145c0-.375.011-.751,0-1.128v-.015a.44.44,0,0,0-.435-.435A.445.445,0,0,0,349.2,504.872Z" transform="translate(-342.693 -503.656)" fill="#9e9999"/>
          </g>
        </g>
        <g id="Group_437" data-name="Group 437" transform="translate(0 13.619)">
          <g id="Group_436" data-name="Group 436">
            <path id="Path_467" data-name="Path 467" d="M83.471,644.268h4.89l-.435-.435v7.026l.435-.435H82.694l.435.435v-6.247h0a.572.572,0,0,1,0-.061c-.011.065-.011.074,0,.026,0-.02.009-.039.013-.057a.562.562,0,0,1,.017-.057c-.026.059-.03.068-.011.024l.041-.074c.041-.078-.057.057,0,0l.059-.061a.353.353,0,0,1,.044-.037c-.05.039-.057.046-.017.017.022-.011.041-.024.063-.035.091-.054-.063.011.015-.007l.085-.022-.026,0a.566.566,0,0,1,.061,0,.435.435,0,0,0,0-.871,1.234,1.234,0,0,0-1.215,1.185c0,.076,0,.152,0,.229v6.051a.442.442,0,0,0,.435.435H88.36a.443.443,0,0,0,.435-.435v-7.026a.443.443,0,0,0-.435-.436h-4.89a.44.44,0,0,0-.435.436A.447.447,0,0,0,83.471,644.268Z" transform="translate(-82.256 -643.397)" fill="#9e9999"/>
          </g>
        </g>
        <g id="Group_439" data-name="Group 439" transform="translate(12.172 13.62)">
          <g id="Group_438" data-name="Group 438">
            <path id="Path_468" data-name="Path 468" d="M646.97,644.615v6.249l.435-.435h-5.668l.435.435v-7.026l-.435.435h4.64c.083,0,.163,0,.246,0h0a.289.289,0,0,0,.061,0l-.041-.006a.305.305,0,0,1,.044.009l.057.015c.089.02-.076-.046,0,0l.05.026a.37.37,0,0,1,.048.031c-.013-.011-.028-.022-.041-.035.022,0,.089.085.1.1.063.065-.03-.061-.009-.009a.572.572,0,0,0,.037.061l.013.026h0c-.015-.035-.015-.033,0,0a.3.3,0,0,1,.011.041l.013.059c.006.033,0,.02-.007-.041,0,.022,0,.044,0,.063a.435.435,0,1,0,.871,0,1.238,1.238,0,0,0-.836-1.154,1.413,1.413,0,0,0-.468-.061h-4.8a.443.443,0,0,0-.435.435v7.026a.443.443,0,0,0,.435.435H647.4a.443.443,0,0,0,.435-.435v-6.249a.44.44,0,0,0-.435-.435A.445.445,0,0,0,646.97,644.615Z" transform="translate(-641.3 -643.4)" fill="#9e9999"/>
          </g>
        </g>
      </g>
    </g>
  </g>
</svg>
