<svg id="Group_211" data-name="Group 211" xmlns="http://www.w3.org/2000/svg" width="132.879" height="24.363" viewBox="0 0 132.879 24.363">
  <path id="Fill_204" data-name="Fill 204" d="M.689,6.313,0,8.167s4.491,2.4,7.846-2.783c3.853-5.953,10.283-5.443,9.323-.3l.66-1.234S18.048-.572,13.477.062C7.763.855,8.2,5.12,5.3,6.59S.689,6.313.689,6.313" transform="translate(101.211 15.64)" fill="#e98650"/>
  <path id="Fill_206" data-name="Fill 206" d="M5.244,8.517C.813,10.373-1.254,5.9.793,1.934S7,.988,8.106,3.165l-.518.969S5.363-.042,2.673,1.315s-1.623,4.8-.954,5.952,3.64.4,3.64.4l-.115.851" transform="translate(115.642 3.649)" fill="#e98650"/>
  <path id="Fill_207" data-name="Fill 207" d="M6.906,12.159C4.121,13.919-2.337,8.194.875,3.035S9.026.369,9.916,2.659L9.411,3.6S6.794-.826,3.389,1.584.674,7.049,2.01,9.1a4.8,4.8,0,0,0,5.211,2.135l-.315.927" transform="translate(111.475 8.562)" fill="#fbe845"/>
  <path id="Fill_208" data-name="Fill 208" d="M14.146,13.3,13.6,14.32a12.583,12.583,0,0,1-1.205-1.74,12.431,12.431,0,0,1-1.749-4.733c-.306-2.224.174-3.564-1.511-5.218C6.514.053,4.077.869,2.66,2.53S-.723,7.863,4.579,7L4.5,7.784C2.907,9.2-2.012,7.663.908,2.84s9.95-3.207,10.8,2.628c.082.555.17,1.1.268,1.641a15.419,15.419,0,0,0,2.174,6.2" transform="translate(118.734 0)" fill="#fbe845"/>
  <path id="Fill_209" data-name="Fill 209" d="M0,4.674C.85.114,7.506-1.884,9.777,2.26S10.248,9.668,6.9,9.067l-.643-.72S11.9,8.205,8.9,2.967,1.1,3.612.877,5.452L0,4.674" transform="translate(3.276 13.364)" fill="#cc3055"/>
  <path id="Fill_210" data-name="Fill 210" d="M.721,2.847,0,1.97s5.06-4.557,8.944.19,2.16,14.086-4.923,12.2l-.745-1.2s4.573,1.5,5.872-2.382.146-8.316-3.248-9.3A4.8,4.8,0,0,0,.721,2.847" transform="translate(0 4.876)" fill="#db324f"/>
</svg>
